<svg width="372" height="117" viewBox="0 0 372 117" fill="none" xmlns="http://www.w3.org/2000/svg">
<path d="M43.1186 91.136C39.8759 91.136 36.4626 90.7947 32.8786 90.112C29.2946 89.4293 25.6252 88.4907 21.8706 87.296L17.1346 85.76L24.6866 68.736L30.8306 69.376C33.3906 69.7173 35.7799 69.9733 37.9986 70.144C40.3026 70.2293 42.6066 70.272 44.9106 70.272C49.5186 70.272 53.1452 69.2907 55.7906 67.328C58.5212 65.3653 60.3132 62.2933 61.1666 58.112L72.4306 0.255997H94.9586L83.0546 61.184C81.0919 71.424 76.7826 78.976 70.1266 83.84C63.4706 88.704 54.4679 91.136 43.1186 91.136Z" fill="#619B8A"/>
<path d="M116.033 90.24L105.537 0.255997H128.833L133.569 64.512L131.393 62.08H133.569L161.985 0H181.185L187.201 65.024L184.001 62.08H186.945L214.721 0.255997H239.041L194.113 90.24H171.457L164.673 24.96L167.617 32.512H165.185L138.305 90.24H116.033Z" fill="#FE7F2D"/>
<path d="M285.835 89.984C284.469 90.3253 283.147 90.5387 281.867 90.624C280.672 90.7947 279.648 90.88 278.795 90.88C272.48 90.88 268 89.344 265.355 86.272C262.795 83.2 261.515 79.5307 261.515 75.264L260.747 72.192L265.227 49.024C265.739 46.1227 265.227 43.9467 263.691 42.496C262.24 41.0453 259.381 40.32 255.115 40.32C252.213 40.32 249.355 40.4907 246.539 40.832C243.723 41.088 240.949 41.472 238.219 41.984L235.019 42.624L233.355 28.544L237.579 27.136C241.845 25.856 246.155 24.7893 250.507 23.936C254.859 23.0827 259.125 22.656 263.307 22.656C267.147 22.656 270.688 23.2107 273.931 24.32C277.173 25.4293 279.904 27.0507 282.123 29.184C284.341 31.3173 285.877 33.9627 286.731 37.12C287.669 40.2773 287.712 43.904 286.859 48L282.763 69.632C282.336 71.8507 282.635 73.3867 283.659 74.24C284.683 75.0933 286.773 75.776 289.931 76.288L285.835 89.984ZM239.243 90.88C235.829 90.88 232.544 90.1547 229.387 88.704C226.229 87.168 223.797 84.9067 222.091 81.92C220.469 78.848 220.128 75.0507 221.067 70.528C221.749 67.2 222.944 64.3413 224.651 61.952C226.443 59.5627 229.045 57.5573 232.459 55.936C235.957 54.3147 240.608 52.992 246.411 51.968L267.019 48.256L264.715 59.008L248.843 63.104C247.307 63.4453 246.069 63.9147 245.131 64.512C244.192 65.024 243.467 65.664 242.955 66.432C242.528 67.1147 242.229 67.9253 242.059 68.864C241.632 70.9973 242.016 72.576 243.211 73.6C244.405 74.624 245.941 75.136 247.819 75.136C249.184 75.136 250.763 74.9227 252.555 74.496C254.432 73.984 256.309 73.216 258.187 72.192L262.923 69.76L265.867 78.208L258.699 83.84C255.541 86.144 252.256 87.8933 248.843 89.088C245.515 90.2827 242.315 90.88 239.243 90.88Z" fill="#FE7F2D"/>
<path d="M298.435 116.608C296.643 116.608 294.552 116.437 292.163 116.096C289.773 115.755 287.128 115.2 284.227 114.432L279.363 112.896L284.739 97.024L289.987 97.408C291.267 97.4933 292.547 97.5787 293.827 97.664C295.107 97.7493 296.259 97.792 297.283 97.792C299.757 97.792 301.763 97.3227 303.299 96.384C304.835 95.4453 306.157 94.08 307.267 92.288L311.235 85.376L312.131 90.624H310.467L295.491 23.808H318.275L324.803 65.408H325.571L346.563 23.808H371.011L324.035 102.4C320.877 107.605 317.165 111.275 312.899 113.408C308.632 115.541 303.811 116.608 298.435 116.608Z" fill="#FE7F2D"/>
<path d="M284.989 97.0195L299.443 116.582C203.47 116.716 149.662 116.791 53.6894 116.925C44.7463 115.972 27.2458 116.925 10.4894 109.958C6.98944 108.465 4.69942 107.532 0.989441 105.977L15.843 90.2081C31.4442 97.0053 47.6681 96.0738 55.9894 97.0195H284.989Z" fill="url(#paint0_linear_21_52)"/>
<path d="M284.919 96.9537C293.474 97.1216 303.06 96.6018 304.466 95.5591L303.793 97.9651H294.515L285.128 97.8122L284.919 96.9537Z" fill="#FE7F2D"/>
<defs>
<linearGradient id="paint0_linear_21_52" x1="0.926483" y1="58.313" x2="369.765" y2="58.313" gradientUnits="userSpaceOnUse">
<stop offset="0.2" stop-color="#619B8A"/>
<stop offset="0.8" stop-color="#FE7F2D"/>
</linearGradient>
</defs>
</svg>
